<svg width="48" height="48" viewBox="0 0 48 48" fill="none" xmlns="http://www.w3.org/2000/svg">
<rect width="48" height="48" rx="24" fill="#5B846E"/>
<rect x="4.5" y="4.5" width="39" height="39" rx="19.5" fill="#5B846E"/>
<rect x="4.5" y="4.5" width="39" height="39" rx="19.5" stroke="white"/>
<path fill-rule="evenodd" clip-rule="evenodd" d="M12 12.731C14.0482 12.5818 16.1715 12.832 17.9472 13.5252C19.5209 14.1654 21.1603 15.3063 21.9119 16.2979C21.9818 16.2453 22.5188 13.6149 23.9313 12.7981L23.9601 12.7743C25.1251 13.5204 25.7405 14.9548 26.0129 16.293C26.2901 16.0956 26.5626 15.7972 26.835 15.4988C29.4375 13.1209 32.5144 12.577 36 12.7262C36 14.7575 35.6571 16.3893 34.9055 18.0259C34.431 19.1667 33.8814 20.1583 33.1298 21.0488C32.9889 21.2943 32.5144 21.742 32.4439 21.9394C33.7452 22.1849 35.3142 22.8299 36 24.0189C35.3141 25.1597 33.7452 25.8047 32.4439 26.0502C32.7164 26.5941 35.8638 29.2223 36 35.2633C32.7869 35.4078 30.3958 35.013 27.8638 33.2802C27.0417 32.7362 26.633 32.1923 26.0176 31.6965C25.7405 33.0346 25.1251 34.522 23.9648 35.2152C23.5561 35.0178 23.0065 34.3247 22.734 33.7808C22.1186 32.741 22.1186 31.9468 21.9119 31.7013C21.1603 32.6399 19.5209 33.877 17.9472 34.4739C16.1715 35.1671 14.0528 35.4174 12 35.2682C12 31.9998 12.9536 29.3234 14.8702 26.9455C15.0111 26.7 15.4199 26.2523 15.5561 26.055C14.1891 25.8576 12.6858 25.1644 12 24.0236C12.2772 23.5278 12.8926 23.0321 13.4375 22.6855C14.1186 22.2426 14.6683 22.0934 15.5561 21.9442L14.1891 20.1631C12.7516 18.0307 12 15.5036 12 12.731ZM17.7459 15.5035C16.9238 15.1088 15.0777 14.5119 13.9831 14.6611C14.6643 18.228 16.3084 20.5096 18.9062 22.2907L21.504 24.0235L21.5087 24.0283L21.2362 24.2257C21.0295 24.322 21.0295 24.3749 20.8933 24.4231C20.6161 24.6252 20.4799 24.7215 20.2074 24.8707C18.8404 25.7612 17.8821 26.3052 16.7218 27.6434C15.3548 29.227 14.5327 30.7144 13.9878 33.3378C15.0119 33.4871 16.8581 32.9383 17.6802 32.5436C23.5615 29.718 24.8581 22.0933 20.4141 17.3856C19.7283 16.6443 18.8404 15.9993 17.7459 15.5035ZM34.0181 14.6563C28.9588 14.7044 24.9235 18.8633 24.9235 24.0187C24.9235 29.174 28.9588 33.2848 34.0181 33.3329C33.9523 32.3895 33.3369 30.9021 32.994 30.1608C30.9411 25.9489 27.3193 24.8611 26.4972 24.0187C27.3193 23.1282 30.8754 22.0836 32.994 17.9247C33.3322 17.1352 33.9476 15.6478 34.0181 14.6563Z" fill="white"/>
</svg>
